<svg width="61" height="72" viewBox="0 0 61 72" fill="none" xmlns="http://www.w3.org/2000/svg">
<path d="M60.8459 59.7693C60.8248 59.8541 60.7921 59.9355 60.7486 60.0112C59.6861 61.9793 57.5571 63.1315 55.7646 64.4599C15.617 90.7014 -19.4492 42.6877 12.3728 9.13146C12.5228 9.01255 12.6851 8.88134 12.8432 8.76243C14.0598 7.44216 15.6211 6.3843 17.0972 5.35104C22.6936 1.63623 29.0523 0.14785 35.7273 0.0207427C51.9161 -0.299075 63.7536 23.716 45.3627 29.5014C34.9163 30.6167 28.5494 14.9948 41.713 13.8549C39.4744 8.58204 32.3127 9.26268 27.8154 10.9848C15.905 15.8353 11.4319 30.8053 12.1497 43.1388C12.5025 63.9351 36.4411 68.2239 52.3785 61.8891C46.2793 54.9925 62.7479 50.2895 60.8459 59.7693Z" fill="#FEEFF1"/>
</svg>
