<svg width="49" height="49" viewBox="0 0 49 49" fill="none" xmlns="http://www.w3.org/2000/svg">
<path d="M15.8229 5.10425C15.8229 4.69814 15.6616 4.30866 15.3744 4.02149C15.0873 3.73433 14.6978 3.573 14.2917 3.573C13.8856 3.573 13.4961 3.73433 13.2089 4.02149C12.9217 4.30866 12.7604 4.69814 12.7604 5.10425V8.33008C9.82042 8.56487 7.89309 9.14062 6.47617 10.5596C5.05721 11.9765 4.48146 13.9059 4.24463 16.8438H44.7554C44.5185 13.9038 43.9428 11.9765 42.5238 10.5596C41.1069 9.14062 39.1775 8.56487 36.2396 8.32804V5.10425C36.2396 4.69814 36.0783 4.30866 35.7911 4.02149C35.5039 3.73433 35.1144 3.573 34.7083 3.573C34.3022 3.573 33.9127 3.73433 33.6256 4.02149C33.3384 4.30866 33.1771 4.69814 33.1771 5.10425V8.19329C31.8194 8.16675 30.2963 8.16675 28.5833 8.16675H20.4167C18.7037 8.16675 17.1806 8.16675 15.8229 8.19329V5.10425Z" fill="#F33863"/>
<path fill-rule="evenodd" clip-rule="evenodd" d="M4.08333 24.5C4.08333 22.787 4.08333 21.264 4.10987 19.9062H44.8901C44.9167 21.264 44.9167 22.787 44.9167 24.5V28.5833C44.9167 36.2825 44.9167 40.133 42.5238 42.5238C40.133 44.9167 36.2825 44.9167 28.5833 44.9167H20.4167C12.7175 44.9167 8.86695 44.9167 6.47616 42.5238C4.08333 40.133 4.08333 36.2825 4.08333 28.5833V24.5ZM34.7083 28.5833C35.2498 28.5833 35.7691 28.3682 36.152 27.9853C36.5349 27.6025 36.75 27.0831 36.75 26.5417C36.75 26.0002 36.5349 25.4809 36.152 25.098C35.7691 24.7151 35.2498 24.5 34.7083 24.5C34.1668 24.5 33.6475 24.7151 33.2646 25.098C32.8818 25.4809 32.6667 26.0002 32.6667 26.5417C32.6667 27.0831 32.8818 27.6025 33.2646 27.9853C33.6475 28.3682 34.1668 28.5833 34.7083 28.5833ZM34.7083 36.75C35.2498 36.75 35.7691 36.5349 36.152 36.152C36.5349 35.7691 36.75 35.2498 36.75 34.7083C36.75 34.1668 36.5349 33.6475 36.152 33.2647C35.7691 32.8818 35.2498 32.6667 34.7083 32.6667C34.1668 32.6667 33.6475 32.8818 33.2646 33.2647C32.8818 33.6475 32.6667 34.1668 32.6667 34.7083C32.6667 35.2498 32.8818 35.7691 33.2646 36.152C33.6475 36.5349 34.1668 36.75 34.7083 36.75ZM26.5417 26.5417C26.5417 27.0831 26.3266 27.6025 25.9437 27.9853C25.5608 28.3682 25.0415 28.5833 24.5 28.5833C23.9585 28.5833 23.4392 28.3682 23.0563 27.9853C22.6734 27.6025 22.4583 27.0831 22.4583 26.5417C22.4583 26.0002 22.6734 25.4809 23.0563 25.098C23.4392 24.7151 23.9585 24.5 24.5 24.5C25.0415 24.5 25.5608 24.7151 25.9437 25.098C26.3266 25.4809 26.5417 26.0002 26.5417 26.5417ZM26.5417 34.7083C26.5417 35.2498 26.3266 35.7691 25.9437 36.152C25.5608 36.5349 25.0415 36.75 24.5 36.75C23.9585 36.75 23.4392 36.5349 23.0563 36.152C22.6734 35.7691 22.4583 35.2498 22.4583 34.7083C22.4583 34.1668 22.6734 33.6475 23.0563 33.2647C23.4392 32.8818 23.9585 32.6667 24.5 32.6667C25.0415 32.6667 25.5608 32.8818 25.9437 33.2647C26.3266 33.6475 26.5417 34.1668 26.5417 34.7083ZM14.2917 28.5833C14.8331 28.5833 15.3525 28.3682 15.7353 27.9853C16.1182 27.6025 16.3333 27.0831 16.3333 26.5417C16.3333 26.0002 16.1182 25.4809 15.7353 25.098C15.3525 24.7151 14.8331 24.5 14.2917 24.5C13.7502 24.5 13.2309 24.7151 12.848 25.098C12.4651 25.4809 12.25 26.0002 12.25 26.5417C12.25 27.0831 12.4651 27.6025 12.848 27.9853C13.2309 28.3682 13.7502 28.5833 14.2917 28.5833ZM14.2917 36.75C14.8331 36.75 15.3525 36.5349 15.7353 36.152C16.1182 35.7691 16.3333 35.2498 16.3333 34.7083C16.3333 34.1668 16.1182 33.6475 15.7353 33.2647C15.3525 32.8818 14.8331 32.6667 14.2917 32.6667C13.7502 32.6667 13.2309 32.8818 12.848 33.2647C12.4651 33.6475 12.25 34.1668 12.25 34.7083C12.25 35.2498 12.4651 35.7691 12.848 36.152C13.2309 36.5349 13.7502 36.75 14.2917 36.75Z" fill="#F33863"/>
</svg>
