<svg width="56" height="56" viewBox="0 0 56 56" fill="none" xmlns="http://www.w3.org/2000/svg">
<path d="M34.0833 29.9167H27.8333C26.6875 29.9167 25.75 30.8542 25.75 32V38.25C25.75 39.3958 26.6875 40.3333 27.8333 40.3333H34.0833C35.2292 40.3333 36.1667 39.3958 36.1667 38.25V32C36.1667 30.8542 35.2292 29.9167 34.0833 29.9167ZM34.0833 9.08333V11.1667H17.4167V9.08333C17.4167 7.9375 16.4792 7 15.3333 7C14.1875 7 13.25 7.9375 13.25 9.08333V11.1667H11.1667C8.85417 11.1667 7.02083 13.0417 7.02083 15.3333L7 44.5C7 45.6051 7.43899 46.6649 8.22039 47.4463C9.00179 48.2277 10.0616 48.6667 11.1667 48.6667H40.3333C42.625 48.6667 44.5 46.7917 44.5 44.5V15.3333C44.5 13.0417 42.625 11.1667 40.3333 11.1667H38.25V9.08333C38.25 7.9375 37.3125 7 36.1667 7C35.0208 7 34.0833 7.9375 34.0833 9.08333ZM38.25 44.5H13.25C12.1042 44.5 11.1667 43.5625 11.1667 42.4167V21.5833H40.3333V42.4167C40.3333 43.5625 39.3958 44.5 38.25 44.5Z" fill="#F33863"/>
</svg>
