<svg width="57" height="57" viewBox="0 0 57 57" fill="none" xmlns="http://www.w3.org/2000/svg">
<path d="M44.141 38.2926C43.9923 38.1134 43.8463 37.9342 43.703 37.7613C41.7321 35.3774 40.5397 33.9387 40.5397 27.1902C40.5397 23.6963 39.7038 20.8296 38.0564 18.6795C36.8416 17.0912 35.1995 15.8862 33.0351 14.9958C33.0072 14.9803 32.9823 14.9599 32.9616 14.9357C32.1831 12.3288 30.0528 10.5828 27.6501 10.5828C25.2474 10.5828 23.1179 12.3288 22.3394 14.9331C22.3187 14.9564 22.2941 14.9761 22.2668 14.9913C17.216 17.0706 14.7613 21.0598 14.7613 27.1875C14.7613 33.9387 13.5707 35.3774 11.5981 37.7586C11.4547 37.9315 11.3087 38.1071 11.16 38.2899C10.7758 38.7531 10.5325 39.3168 10.4586 39.914C10.3848 40.5113 10.4836 41.1172 10.7434 41.6601C11.2962 42.8247 12.4742 43.5477 13.8189 43.5477H41.4911C42.8295 43.5477 43.9995 42.8256 44.554 41.6664C44.8149 41.1234 44.9147 40.517 44.8415 39.919C44.7683 39.321 44.5252 38.7566 44.141 38.2926ZM27.6501 50.7172C28.9446 50.7162 30.2147 50.3648 31.3257 49.7003C32.4367 49.0358 33.3472 48.083 33.9605 46.943C33.9894 46.8883 34.0037 46.8272 34.0019 46.7654C34.0002 46.7036 33.9825 46.6433 33.9506 46.5904C33.9187 46.5375 33.8736 46.4937 33.8198 46.4633C33.7659 46.433 33.7052 46.417 33.6434 46.4171H21.6586C21.5967 46.4169 21.5358 46.4327 21.4818 46.463C21.4279 46.4933 21.3827 46.5371 21.3507 46.59C21.3186 46.643 21.3009 46.7033 21.2991 46.7652C21.2973 46.827 21.3116 46.8883 21.3405 46.943C21.9538 48.0829 22.8641 49.0356 23.9749 49.7001C25.0857 50.3645 26.3557 50.716 27.6501 50.7172Z" fill="#F33863"/>
</svg>
