<svg width="40" height="40" viewBox="0 0 40 40" fill="none" xmlns="http://www.w3.org/2000/svg">
<path d="M0.934968 13.8573C1.80911 11.1791 3.2405 8.7164 5.13495 6.63123C5.29316 6.46093 5.49753 6.34038 5.7231 6.28428C5.94868 6.22818 6.18571 6.23897 6.40526 6.31532L10.9278 7.92481C11.2491 8.0387 11.5912 8.08167 11.9306 8.05079C12.27 8.01991 12.5988 7.9159 12.8942 7.74591C13.1896 7.57592 13.4448 7.34398 13.642 7.06603C13.8393 6.78809 13.9741 6.47072 14.0371 6.13575L14.9017 1.42698C14.9422 1.19739 15.0507 0.985257 15.2131 0.818055C15.3756 0.650854 15.5845 0.536292 15.8128 0.489213C18.5757 -0.0940607 21.4299 -0.0940607 24.1928 0.489213C24.6584 0.588975 25.0175 0.958095 25.104 1.42698L25.9686 6.13575C26.0305 6.47127 26.1647 6.78933 26.3617 7.06789C26.5587 7.34645 26.8139 7.57886 27.1097 7.74903C27.4054 7.91919 27.7346 8.02305 28.0744 8.0534C28.4143 8.08375 28.7566 8.03988 29.0779 7.92481L33.6004 6.31532C33.82 6.23897 34.057 6.22818 34.2826 6.28428C34.5081 6.34038 34.7125 6.46093 34.8707 6.63123C36.764 8.71671 38.1942 11.1794 39.0674 13.8573C39.1402 14.0787 39.145 14.3169 39.0809 14.541C39.0169 14.7651 38.8871 14.9649 38.7082 15.1143L35.0436 18.2103C34.7827 18.4297 34.573 18.7036 34.4291 19.0126C34.2852 19.3217 34.2106 19.6584 34.2106 19.9994C34.2106 20.3403 34.2852 20.677 34.4291 20.9861C34.573 21.2951 34.7827 21.569 35.0436 21.7884L38.7082 24.8844C39.074 25.1936 39.2137 25.6891 39.0674 26.1414C38.1942 28.8193 36.764 31.282 34.8707 33.3675C34.7125 33.5378 34.5081 33.6583 34.2826 33.7144C34.057 33.7705 33.82 33.7597 33.6004 33.6834L29.0779 32.0739C28.7566 31.96 28.4145 31.917 28.0751 31.9479C27.7356 31.9788 27.4069 32.0828 27.1115 32.2528C26.816 32.4228 26.5609 32.6547 26.3636 32.9327C26.1663 33.2106 26.0316 33.528 25.9686 33.863L25.104 38.5717C25.0633 38.8018 24.9543 39.0142 24.7912 39.1815C24.6281 39.3487 24.4184 39.463 24.1895 39.5095C21.4277 40.0923 18.5746 40.0923 15.8128 39.5095C15.5839 39.463 15.3742 39.3487 15.2111 39.1815C15.048 39.0142 14.939 38.8018 14.8983 38.5717L14.0371 33.863C13.9751 33.5274 13.841 33.2094 13.644 32.9308C13.4469 32.6522 13.1917 32.4198 12.896 32.2497C12.6003 32.0795 12.2711 31.9757 11.9312 31.9453C11.5914 31.915 11.249 31.9588 10.9278 32.0739L6.40526 33.6834C6.18571 33.7597 5.94868 33.7705 5.7231 33.7144C5.49753 33.6583 5.29316 33.5378 5.13495 33.3675C3.24169 31.282 1.81145 28.8193 0.938293 26.1414C0.86541 25.92 0.860678 25.6818 0.924711 25.4577C0.988743 25.2336 1.11859 25.0338 1.29744 24.8844L4.96203 21.7884C5.22241 21.5687 5.43169 21.2947 5.57525 20.9857C5.7188 20.6767 5.79318 20.3401 5.79318 19.9994C5.79318 19.6586 5.7188 19.322 5.57525 19.013C5.43169 18.704 5.22241 18.43 4.96203 18.2103L1.29744 15.1143C1.11859 14.9649 0.988743 14.7651 0.924711 14.541C0.860678 14.3169 0.862084 14.0787 0.934968 13.8573ZM14.18 19.9994C14.18 21.5428 14.7932 23.023 15.8845 24.1143C16.9759 25.2057 18.4561 25.8188 19.9995 25.8188C21.5429 25.8188 23.0231 25.2057 24.1145 24.1143C25.2058 23.023 25.819 21.5428 25.819 19.9994C25.819 18.4559 25.2058 16.9757 24.1145 15.8844C23.0231 14.793 21.5429 14.1799 19.9995 14.1799C18.4561 14.1799 16.9759 14.793 15.8845 15.8844C14.7932 16.9757 14.18 18.4559 14.18 19.9994Z" fill="#F33863"/>
</svg>
